<mxfile host="app.diagrams.net" modified="2020-06-10T21:04:50.568Z" agent="5.0 (Macintosh; Intel Mac OS X 10_14_6) AppleWebKit/537.36 (KHTML, like Gecko) Chrome/83.0.4103.61 Safari/537.36" etag="Oj0sg7qwfQi7fF2LgxMB" version="13.2.1" type="github">
  <diagram id="ovLufhgYYAJsv14iE1V-" name="Page-1">
    <mxGraphModel dx="1140" dy="877" grid="1" gridSize="10" guides="1" tooltips="1" connect="1" arrows="1" fold="1" page="1" pageScale="1" pageWidth="1100" pageHeight="850" math="0" shadow="0">
      <root>
        <mxCell id="0" />
        <mxCell id="1" parent="0" />
        <mxCell id="mtFovxy9MhyzxlUuzQmF-2" value="" style="group" vertex="1" connectable="0" parent="1">
          <mxGeometry x="30" y="70" width="100" height="70" as="geometry" />
        </mxCell>
        <mxCell id="yHwTe9zug0kXlLt8LPYq-1" value="" style="rounded=0;whiteSpace=wrap;html=1;fillColor=#fff2cc;strokeColor=#d6b656;opacity=80;movable=0;resizable=0;rotatable=0;deletable=0;editable=0;connectable=0;" parent="mtFovxy9MhyzxlUuzQmF-2" vertex="1">
          <mxGeometry width="100" height="70" as="geometry" />
        </mxCell>
        <mxCell id="mtFovxy9MhyzxlUuzQmF-1" value="Pupster" style="text;html=1;resizable=1;autosize=1;align=center;verticalAlign=middle;points=[];fillColor=none;strokeColor=none;rounded=0;opacity=80;movable=1;rotatable=1;deletable=1;editable=1;connectable=1;container=1;" vertex="1" parent="mtFovxy9MhyzxlUuzQmF-2">
          <mxGeometry x="20" y="25" width="60" height="20" as="geometry" />
        </mxCell>
        <mxCell id="mtFovxy9MhyzxlUuzQmF-3" value="React Diagram - Week 18 - Activity 23" style="text;html=1;resizable=0;autosize=1;align=center;verticalAlign=middle;points=[];fillColor=none;strokeColor=none;rounded=0;opacity=80;fontSize=24;" vertex="1" parent="1">
          <mxGeometry x="215" y="5" width="420" height="30" as="geometry" />
        </mxCell>
        <mxCell id="mtFovxy9MhyzxlUuzQmF-25" value="" style="group" vertex="1" connectable="0" parent="1">
          <mxGeometry x="130" y="190" width="100" height="70" as="geometry" />
        </mxCell>
        <mxCell id="mtFovxy9MhyzxlUuzQmF-26" value="" style="rounded=0;whiteSpace=wrap;html=1;fillColor=#fff2cc;strokeColor=#d6b656;opacity=80;movable=0;resizable=0;rotatable=0;deletable=0;editable=0;connectable=0;" vertex="1" parent="mtFovxy9MhyzxlUuzQmF-25">
          <mxGeometry width="100" height="70" as="geometry" />
        </mxCell>
        <mxCell id="mtFovxy9MhyzxlUuzQmF-27" value="components" style="text;html=1;resizable=1;autosize=1;align=center;verticalAlign=middle;points=[];fillColor=none;strokeColor=none;rounded=0;opacity=80;movable=1;rotatable=1;deletable=1;editable=1;connectable=1;container=1;" vertex="1" parent="mtFovxy9MhyzxlUuzQmF-25">
          <mxGeometry y="25" width="100" height="20" as="geometry" />
        </mxCell>
        <mxCell id="mtFovxy9MhyzxlUuzQmF-31" value="" style="group" vertex="1" connectable="0" parent="1">
          <mxGeometry x="130" y="400" width="100" height="70" as="geometry" />
        </mxCell>
        <mxCell id="mtFovxy9MhyzxlUuzQmF-29" value="" style="rounded=0;whiteSpace=wrap;html=1;fillColor=#fff2cc;strokeColor=#d6b656;opacity=80;movable=0;resizable=0;rotatable=0;deletable=0;editable=0;connectable=0;" vertex="1" parent="mtFovxy9MhyzxlUuzQmF-31">
          <mxGeometry width="100" height="70" as="geometry" />
        </mxCell>
        <mxCell id="mtFovxy9MhyzxlUuzQmF-30" value="pages" style="text;html=1;resizable=1;autosize=1;align=center;verticalAlign=middle;points=[];fillColor=none;strokeColor=none;rounded=0;opacity=80;movable=1;rotatable=1;deletable=1;editable=1;connectable=1;container=0;" vertex="1" parent="mtFovxy9MhyzxlUuzQmF-31">
          <mxGeometry x="25" y="25" width="50" height="20" as="geometry" />
        </mxCell>
        <mxCell id="mtFovxy9MhyzxlUuzQmF-33" value="" style="group" vertex="1" connectable="0" parent="1">
          <mxGeometry x="130" y="640" width="100" height="70" as="geometry" />
        </mxCell>
        <mxCell id="mtFovxy9MhyzxlUuzQmF-34" value="" style="rounded=0;whiteSpace=wrap;html=1;fillColor=#fff2cc;strokeColor=#d6b656;opacity=80;movable=0;resizable=0;rotatable=0;deletable=0;editable=0;connectable=0;" vertex="1" parent="mtFovxy9MhyzxlUuzQmF-33">
          <mxGeometry width="100" height="70" as="geometry" />
        </mxCell>
        <mxCell id="mtFovxy9MhyzxlUuzQmF-35" value="utils" style="text;html=1;resizable=1;autosize=1;align=center;verticalAlign=middle;points=[];fillColor=none;strokeColor=none;rounded=0;opacity=80;movable=1;rotatable=1;deletable=1;editable=1;connectable=1;container=1;" vertex="1" parent="mtFovxy9MhyzxlUuzQmF-33">
          <mxGeometry x="25" y="25" width="50" height="20" as="geometry" />
        </mxCell>
        <mxCell id="mtFovxy9MhyzxlUuzQmF-36" value="About" style="shape=note;whiteSpace=wrap;html=1;backgroundOutline=1;darkOpacity=0.05;fontSize=24;opacity=80;" vertex="1" parent="1">
          <mxGeometry x="260" y="370" width="90" height="120" as="geometry" />
        </mxCell>
        <mxCell id="mtFovxy9MhyzxlUuzQmF-37" value="Search" style="shape=note;whiteSpace=wrap;html=1;backgroundOutline=1;darkOpacity=0.05;fontSize=24;opacity=80;" vertex="1" parent="1">
          <mxGeometry x="635" y="375" width="90" height="120" as="geometry" />
        </mxCell>
        <mxCell id="mtFovxy9MhyzxlUuzQmF-38" value="Discover" style="shape=note;whiteSpace=wrap;html=1;backgroundOutline=1;darkOpacity=0.05;fontSize=24;opacity=80;" vertex="1" parent="1">
          <mxGeometry x="950" y="375" width="90" height="120" as="geometry" />
        </mxCell>
        <mxCell id="mtFovxy9MhyzxlUuzQmF-39" value="API" style="shape=note;whiteSpace=wrap;html=1;backgroundOutline=1;darkOpacity=0.05;fontSize=24;opacity=80;" vertex="1" parent="1">
          <mxGeometry x="260" y="600" width="90" height="120" as="geometry" />
        </mxCell>
        <mxCell id="mtFovxy9MhyzxlUuzQmF-40" value="About" style="shape=note;whiteSpace=wrap;html=1;backgroundOutline=1;darkOpacity=0.05;fontSize=24;opacity=80;" vertex="1" parent="1">
          <mxGeometry x="530" y="590" width="90" height="120" as="geometry" />
        </mxCell>
        <mxCell id="mtFovxy9MhyzxlUuzQmF-41" value="About" style="shape=note;whiteSpace=wrap;html=1;backgroundOutline=1;darkOpacity=0.05;fontSize=24;opacity=80;" vertex="1" parent="1">
          <mxGeometry x="470" y="640" width="90" height="120" as="geometry" />
        </mxCell>
        <mxCell id="mtFovxy9MhyzxlUuzQmF-42" value="About" style="shape=note;whiteSpace=wrap;html=1;backgroundOutline=1;darkOpacity=0.05;fontSize=24;opacity=80;" vertex="1" parent="1">
          <mxGeometry x="670" y="620" width="90" height="120" as="geometry" />
        </mxCell>
        <mxCell id="mtFovxy9MhyzxlUuzQmF-43" value="About" style="shape=note;whiteSpace=wrap;html=1;backgroundOutline=1;darkOpacity=0.05;fontSize=24;opacity=80;" vertex="1" parent="1">
          <mxGeometry x="500" y="550" width="90" height="120" as="geometry" />
        </mxCell>
        <mxCell id="mtFovxy9MhyzxlUuzQmF-44" value="About" style="shape=note;whiteSpace=wrap;html=1;backgroundOutline=1;darkOpacity=0.05;fontSize=24;opacity=80;" vertex="1" parent="1">
          <mxGeometry x="520" y="150" width="90" height="120" as="geometry" />
        </mxCell>
        <mxCell id="mtFovxy9MhyzxlUuzQmF-45" value="About" style="shape=note;whiteSpace=wrap;html=1;backgroundOutline=1;darkOpacity=0.05;fontSize=24;opacity=80;" vertex="1" parent="1">
          <mxGeometry x="430" y="90" width="90" height="120" as="geometry" />
        </mxCell>
        <mxCell id="mtFovxy9MhyzxlUuzQmF-46" value="About" style="shape=note;whiteSpace=wrap;html=1;backgroundOutline=1;darkOpacity=0.05;fontSize=24;opacity=80;" vertex="1" parent="1">
          <mxGeometry x="630" y="100" width="90" height="120" as="geometry" />
        </mxCell>
        <mxCell id="mtFovxy9MhyzxlUuzQmF-47" value="About" style="shape=note;whiteSpace=wrap;html=1;backgroundOutline=1;darkOpacity=0.05;fontSize=24;opacity=80;" vertex="1" parent="1">
          <mxGeometry x="620" y="110" width="90" height="120" as="geometry" />
        </mxCell>
        <mxCell id="mtFovxy9MhyzxlUuzQmF-48" value="About" style="shape=note;whiteSpace=wrap;html=1;backgroundOutline=1;darkOpacity=0.05;fontSize=24;opacity=80;" vertex="1" parent="1">
          <mxGeometry x="620" y="150" width="90" height="120" as="geometry" />
        </mxCell>
        <mxCell id="mtFovxy9MhyzxlUuzQmF-54" value="" style="group" vertex="1" connectable="0" parent="1">
          <mxGeometry x="260" y="120" width="90" height="215" as="geometry" />
        </mxCell>
        <mxCell id="mtFovxy9MhyzxlUuzQmF-49" value="Col" style="shape=note;whiteSpace=wrap;html=1;backgroundOutline=1;darkOpacity=0.05;fontSize=24;opacity=80;verticalAlign=top;container=1;" vertex="1" parent="mtFovxy9MhyzxlUuzQmF-54">
          <mxGeometry width="90" height="120" as="geometry" />
        </mxCell>
        <mxCell id="mtFovxy9MhyzxlUuzQmF-51" value="Row" style="shape=note;whiteSpace=wrap;html=1;backgroundOutline=1;darkOpacity=0.05;fontSize=24;opacity=80;verticalAlign=top;" vertex="1" parent="mtFovxy9MhyzxlUuzQmF-54">
          <mxGeometry y="45" width="90" height="120" as="geometry" />
        </mxCell>
        <mxCell id="mtFovxy9MhyzxlUuzQmF-50" value="&lt;p style=&quot;line-height: 80%&quot;&gt;Hero&lt;br&gt;&lt;/p&gt;" style="shape=note;whiteSpace=wrap;html=1;backgroundOutline=1;darkOpacity=0.05;fontSize=24;opacity=80;labelPosition=center;verticalLabelPosition=middle;align=center;verticalAlign=top;" vertex="1" parent="mtFovxy9MhyzxlUuzQmF-54">
          <mxGeometry y="85" width="90" height="130" as="geometry" />
        </mxCell>
        <mxCell id="mtFovxy9MhyzxlUuzQmF-57" value="&lt;font style=&quot;font-size: 18px&quot;&gt;(props)&lt;/font&gt;" style="text;html=1;resizable=0;autosize=1;align=center;verticalAlign=middle;points=[];fillColor=none;strokeColor=none;rounded=0;fontSize=24;opacity=80;" vertex="1" parent="mtFovxy9MhyzxlUuzQmF-54">
          <mxGeometry x="10" y="140" width="70" height="40" as="geometry" />
        </mxCell>
        <mxCell id="mtFovxy9MhyzxlUuzQmF-58" value="&lt;span style=&quot;font-size: 18px&quot;&gt;&amp;lt;div&amp;gt;&lt;/span&gt;" style="text;html=1;resizable=0;autosize=1;align=center;verticalAlign=middle;points=[];fillColor=none;strokeColor=none;rounded=0;fontSize=24;opacity=80;" vertex="1" parent="mtFovxy9MhyzxlUuzQmF-54">
          <mxGeometry x="15" y="170" width="60" height="40" as="geometry" />
        </mxCell>
      </root>
    </mxGraphModel>
  </diagram>
</mxfile>
